<svg width="14" height="16" viewBox="0 0 14 16" fill="none" xmlns="http://www.w3.org/2000/svg">
<path fill-rule="evenodd" clip-rule="evenodd" d="M1.19866 0.107733L13.6015 7.30712C13.9831 7.52864 14.1134 8.01839 13.8924 8.40102C13.8225 8.52207 13.7222 8.62264 13.6015 8.69273L1.19862 15.8921C0.816996 16.1137 0.32852 15.9831 0.107579 15.6004C0.00728076 15.4267 -0.0242826 15.2216 0.019143 15.0257L0.991468 10.6387C1.13084 10.0099 1.63253 9.52606 2.26467 9.41082L7.84449 8.39365C8.06142 8.35411 8.2053 8.14574 8.16586 7.92824C8.13612 7.76423 8.0081 7.63587 7.84452 7.60604L2.26455 6.58842C1.63248 6.47315 1.13085 5.98933 0.991471 5.36055L0.0191877 0.974212C-0.07648 0.542619 0.194927 0.114987 0.625392 0.0190684C0.820812 -0.0244759 1.02542 0.00716904 1.19866 0.107733Z" fill="white"/>
</svg>
