<svg width="12" height="16" viewBox="0 0 12 16" fill="none" xmlns="http://www.w3.org/2000/svg">
<path d="M0.505902 16C0.370995 16 0.249578 15.9467 0.141653 15.84C0.0472175 15.7181 0 15.581 0 15.4286V0.571429C0 0.40381 0.0472175 0.266667 0.141653 0.160001C0.249578 0.0533336 0.370995 0 0.505902 0H6.67791C8.37774 0 9.63912 0.396191 10.4621 1.18857C11.2985 1.96572 11.7167 3.0781 11.7167 4.52571C11.7167 5.28762 11.5413 5.93524 11.1906 6.46857C10.8533 6.98667 10.4688 7.36762 10.0371 7.61143C10.5902 7.90095 11.0557 8.36571 11.4334 9.00571C11.8111 9.64571 12 10.3619 12 11.1543C12 12.6781 11.5548 13.8667 10.6644 14.72C9.77403 15.5733 8.5059 16 6.86003 16H0.505902ZM6.27319 6.35429C6.81282 6.35429 7.22428 6.2019 7.50759 5.89714C7.79089 5.57714 7.93255 5.1581 7.93255 4.64C7.93255 4.13714 7.79089 3.73333 7.50759 3.42857C7.22428 3.12381 6.81282 2.97143 6.27319 2.97143H3.6425V6.35429H6.27319ZM6.45531 13.0286C7.00843 13.0286 7.44013 12.8457 7.75042 12.48C8.06071 12.1143 8.21585 11.6724 8.21585 11.1543C8.21585 10.6057 8.06071 10.1562 7.75042 9.80571C7.44013 9.44 7.00843 9.25714 6.45531 9.25714H3.6425V13.0286H6.45531Z" fill="#343434"/>
</svg>
