<svg width="22" height="22" viewBox="0 0 22 22" fill="none" xmlns="http://www.w3.org/2000/svg">
<path fill-rule="evenodd" clip-rule="evenodd" d="M13.0707 3.2726C8.80301 2.12906 4.41631 4.66172 3.27278 8.92945C2.12924 13.1972 4.6619 17.5839 8.92963 18.7274C10.5731 19.1678 12.2304 19.0635 13.7154 18.526C14.4078 18.2754 15.1723 18.6336 15.4229 19.326C15.6735 20.0184 15.3153 20.7829 14.6229 21.0335C12.6415 21.7506 10.4268 21.8893 8.23945 21.3032C2.54914 19.7785 -0.827736 13.9296 0.696977 8.23927C2.22169 2.54896 8.07062 -0.827919 13.7609 0.696794C19.4512 2.22151 22.8281 8.07043 21.3034 13.7607C21.3016 13.7675 21.2997 13.7742 21.2978 13.7808C20.7177 15.9025 18.5315 17.1591 16.4043 16.5892C15.5346 16.3561 14.8089 15.8537 14.2932 15.1957C13.0181 16.1949 11.305 16.6032 9.61974 16.1516C6.77459 15.3892 5.08615 12.4648 5.8485 9.61963C6.61086 6.77448 9.53532 5.08604 12.3805 5.8484C15.2256 6.61075 16.9141 9.53522 16.1517 12.3804C16.151 12.3831 16.1502 12.3858 16.1495 12.3885C15.9643 13.0973 16.3859 13.8235 17.0945 14.0134C17.8058 14.204 18.5369 13.7818 18.7275 13.0706C19.871 8.80283 17.3385 4.41613 13.0707 3.2726ZM13.5759 11.6902C13.9571 10.2676 13.1129 8.80538 11.6903 8.4242C10.2677 8.04302 8.80548 8.88724 8.42431 10.3098C8.04313 11.7324 8.88735 13.1946 10.3099 13.5758C11.7292 13.9561 13.188 13.1166 13.5733 11.7C13.5741 11.6967 13.575 11.6935 13.5759 11.6902Z" fill="#343434"/>
</svg>
