<svg width="12" height="16" viewBox="0 0 12 16" fill="none" xmlns="http://www.w3.org/2000/svg">
<path fill-rule="evenodd" clip-rule="evenodd" d="M4.83451 2.02656C5.89479 0.08863 8.24308 -0.575355 10.0795 0.543512C11.916 1.66238 12.5452 4.14041 11.4849 6.07834L10.0451 8.71005C8.9848 10.648 6.63652 11.312 4.80005 10.1931L4.48831 10.0032C4.02919 9.72346 3.87189 9.10395 4.13696 8.61947C4.40203 8.13498 4.9891 7.96899 5.44822 8.2487L5.75996 8.43863C6.67819 8.99806 7.85233 8.66607 8.38247 7.6971L9.82234 5.0654C10.3525 4.09643 10.0379 2.85742 9.11964 2.29798C8.2014 1.73855 7.02726 2.07054 6.49712 3.03951L6.01716 3.91674C5.75209 4.40123 5.16502 4.56722 4.70591 4.28751C4.24679 4.00779 4.08948 3.38828 4.35456 2.9038L4.83451 2.02656Z" fill="#343434"/>
<path fill-rule="evenodd" clip-rule="evenodd" d="M7.16549 13.9734C6.10521 15.9114 3.75692 16.5754 1.92046 15.4565C0.0839899 14.3376 -0.545231 11.8596 0.515054 9.92166L1.95492 7.28995C3.0152 5.35202 5.36348 4.68803 7.19995 5.8069L7.51169 5.99683C7.97081 6.27654 8.12811 6.89605 7.86304 7.38053C7.59797 7.86502 7.0109 8.03101 6.55178 7.7513L6.24004 7.56137C5.32181 7.00194 4.14767 7.33393 3.61753 8.3029L2.17766 10.9346C1.64752 11.9036 1.96213 13.1426 2.88036 13.702C3.7986 14.2615 4.97274 13.9295 5.50288 12.9605L5.98284 12.0833C6.24791 11.5988 6.83498 11.4328 7.29409 11.7125C7.75321 11.9922 7.91052 12.6117 7.64544 13.0962L7.16549 13.9734Z" fill="#343434"/>
</svg>
