<svg width="16" height="16" viewBox="0 0 16 16" fill="none" xmlns="http://www.w3.org/2000/svg">
<path d="M12.5606 3.99266C13.1884 3.81604 13.551 3.13896 13.2274 2.57275C12.3264 0.99606 10.7381 0 8.20279 0C4.91901 0 2.48657 1.8539 2.48657 4.47355C2.48657 5.4718 2.76548 6.316 3.35434 7H1C0.447715 7 0 7.44772 0 8C0 8.55229 0.447715 9 1 9H15C15.5523 9 16 8.55229 16 8C16 7.44772 15.5523 7 15 7H9.15314L7.55414 6.60957C5.70955 6.15617 4.87846 5.54156 4.87846 4.35264C4.87846 3.02267 6.29738 2.05542 8.20279 2.05542C9.69341 2.05542 10.5589 2.6409 11.0833 3.36453C11.4267 3.83834 11.9973 4.15114 12.5606 3.99266Z" fill="#343434"/>
<path d="M11.5271 11.4861C11.5271 10.885 11.2927 10.3861 10.8077 10H13.783C13.928 10.4137 14.0001 10.8683 14.0001 11.3652C14.0001 14.0353 11.5372 16 7.91901 16C5.21173 16 3.23059 14.9865 2.35617 13.0649C2.08967 12.4793 2.49509 11.8467 3.11953 11.6916C3.75643 11.5333 4.37518 11.9419 4.73453 12.4911C5.35012 13.4318 6.40814 13.9043 7.87847 13.9043C10.1082 13.9043 11.5271 12.8161 11.5271 11.4861Z" fill="#343434"/>
</svg>
