<svg width="22" height="22" viewBox="0 0 22 22" fill="none" xmlns="http://www.w3.org/2000/svg">
<path d="M5.66665 4.33337C4.93027 4.33337 4.33331 4.93033 4.33331 5.66671V7.00004C4.33331 7.73642 4.93027 8.33337 5.66665 8.33337C6.40303 8.33337 6.99998 7.73642 6.99998 7.00004H9.66665V15C8.93027 15 8.33331 15.597 8.33331 16.3334C8.33331 17.0698 8.93027 17.6667 9.66665 17.6667H12.3333C13.0697 17.6667 13.6666 17.0698 13.6666 16.3334C13.6666 15.597 13.0697 15 12.3333 15V7.00004H15C15 7.73642 15.5969 8.33337 16.3333 8.33337C17.0697 8.33337 17.6666 7.73642 17.6666 7.00004V5.66671C17.6666 4.93033 17.0697 4.33337 16.3333 4.33337H5.66665Z" fill="#343434"/>
<path fill-rule="evenodd" clip-rule="evenodd" d="M5.66665 0.333374C2.72113 0.333374 0.333313 2.72119 0.333313 5.66671V16.3334C0.333313 19.2789 2.72113 21.6667 5.66665 21.6667H16.3333C19.2788 21.6667 21.6666 19.2789 21.6666 16.3334V5.66671C21.6666 2.72119 19.2788 0.333374 16.3333 0.333374H5.66665ZM2.99998 5.66671C2.99998 4.19395 4.19389 3.00004 5.66665 3.00004H16.3333C17.8061 3.00004 19 4.19395 19 5.66671V16.3334C19 17.8061 17.8061 19 16.3333 19H5.66665C4.19389 19 2.99998 17.8061 2.99998 16.3334V5.66671Z" fill="#343434"/>
</svg>
