<svg width="20" height="14" viewBox="0 0 20 14" fill="none" xmlns="http://www.w3.org/2000/svg">
<path fill-rule="evenodd" clip-rule="evenodd" d="M12.3162 0.0513133C12.8402 0.225961 13.1233 0.792281 12.9487 1.31622L8.94868 13.3162C8.77404 13.8402 8.20772 14.1233 7.68377 13.9487C7.15983 13.774 6.87667 13.2077 7.05132 12.6838L11.0513 0.683769C11.226 0.159826 11.7923 -0.123334 12.3162 0.0513133ZM5.70711 2.29289C6.09763 2.68341 6.09763 3.31658 5.70711 3.7071L2.41421 7L5.70711 10.2929C6.09763 10.6834 6.09763 11.3166 5.70711 11.7071C5.31658 12.0976 4.68342 12.0976 4.29289 11.7071L0.292893 7.7071C-0.0976311 7.31658 -0.0976311 6.68341 0.292893 6.29289L4.29289 2.29289C4.68342 1.90237 5.31658 1.90237 5.70711 2.29289ZM14.2929 2.29289C14.6834 1.90237 15.3166 1.90237 15.7071 2.29289L19.7071 6.29289C20.0976 6.68341 20.0976 7.31658 19.7071 7.7071L15.7071 11.7071C15.3166 12.0976 14.6834 12.0976 14.2929 11.7071C13.9024 11.3166 13.9024 10.6834 14.2929 10.2929L17.5858 7L14.2929 3.7071C13.9024 3.31658 13.9024 2.68341 14.2929 2.29289Z" fill="#343434"/>
</svg>
