<svg width="22" height="22" viewBox="0 0 22 22" fill="none" xmlns="http://www.w3.org/2000/svg">
<path fill-rule="evenodd" clip-rule="evenodd" d="M9.06062 9.06065V2.27277C9.06062 1.20167 9.92891 0.333374 11 0.333374C12.0711 0.333374 12.9394 1.20167 12.9394 2.27277V9.06065H19.7273C20.7984 9.06065 21.6667 9.92894 21.6667 11C21.6667 12.0711 20.7984 12.9394 19.7273 12.9394H12.9394V19.7273C12.9394 20.7984 12.0711 21.6667 11 21.6667C9.92891 21.6667 9.06062 20.7984 9.06062 19.7273V12.9394H2.27274C1.20164 12.9394 0.333344 12.0711 0.333344 11C0.333344 9.92894 1.20164 9.06065 2.27274 9.06065H9.06062Z" fill="#343434"/>
</svg>
